<svg xmlns="http://www.w3.org/2000/svg" viewBox="0 0 49.077 57.095">
  <path stroke="#fff" stroke-width="3.5" d="M19 958.361c-3.255.84-1.67 4.966-2 7.524v78.478c1.388 4.526 6.952-3.734 5.424-6.487L21 960.361c.031-1.065-.934-2.03-2-2zm56.188 6.002c-8.205-.159-15.558 3.901-23.205 6.198-9.784 2.407-20.48.54-28.983-4.823v36.125c10.686 7.068 24.998 7.63 36.492 2.186 7.277-2.764 15.484-4.9 23.132-2.329.89-1.768.151-4.183.376-6.234l1.746-28.597c-2.43-1.137-6.907-2.519-9.558-2.526z" color="#000" paint-order="stroke markers fill" transform="matrix(.6796 -.04867 .045 .6282 -53.553 -600.01)" />
</svg>
