<?xml version="1.0" standalone="no"?>
<!DOCTYPE svg PUBLIC "-//W3C//DTD SVG 20010904//EN"
 "http://www.w3.org/TR/2001/REC-SVG-20010904/DTD/svg10.dtd">
<svg version="1.0" xmlns="http://www.w3.org/2000/svg"
 width="912.000000pt" height="912.000000pt" viewBox="0 0 912.000000 912.000000"
 preserveAspectRatio="xMidYMid meet">
<metadata>
Created by potrace 1.14, written by Peter Selinger 2001-2017
</metadata>
<g transform="translate(0.000000,912.000000) scale(0.100000,-0.100000)"
fill="#000000" stroke="none">
<path d="M979 8920 c-44 -23 -94 -72 -114 -110 -8 -16 -20 -61 -27 -100 -11
-62 -9 -94 10 -253 13 -100 25 -225 28 -277 3 -52 61 -878 129 -1835 69 -957
192 -2685 275 -3840 82 -1155 153 -2129 156 -2163 5 -50 13 -73 38 -105 66
-86 159 -80 264 18 104 96 188 233 244 398 38 113 45 248 16 307 -14 28 -35
224 -103 960 -46 509 -107 1170 -134 1470 -28 300 -62 671 -76 825 -14 154
-64 696 -111 1205 -134 1465 -210 2296 -259 2835 -25 275 -47 513 -50 530 -14
80 -112 155 -201 155 -28 -1 -65 -9 -85 -20z"/>
<path d="M7060 8769 c-224 -21 -514 -85 -775 -169 -207 -67 -421 -150 -860
-335 -713 -300 -854 -346 -1260 -414 -338 -57 -808 -72 -1140 -37 -512 54
-1022 192 -1425 385 l-65 31 -3 -32 c-2 -18 31 -508 73 -1088 41 -580 98
-1367 125 -1748 28 -382 50 -707 50 -723 0 -29 6 -33 108 -81 406 -190 827
-309 1302 -365 209 -25 776 -25 980 0 354 44 636 106 938 205 202 67 345 126
599 246 400 188 872 350 1253 431 230 48 383 66 621 72 262 7 413 -6 645 -53
29 -5 32 -3 43 28 23 63 24 177 3 353 -20 162 -21 241 -28 1647 l-7 1478 -81
24 c-401 123 -792 174 -1096 145z"/>
</g>
</svg>
